<svg width="85" height="30" viewBox="0 0 85 30" fill="none" xmlns="http://www.w3.org/2000/svg">
<g clip-path="url(#clip0_387_1533)">
<rect width="16" height="4.00002" transform="translate(0 16.3137) rotate(-45)" fill="#FFE45E"/>
<rect width="20" height="4.00002" transform="translate(7.14209 19.1422) rotate(-45)" fill="#5EABE3"/>
<rect width="24" height="4.00002" transform="translate(14.1128 21.9706) rotate(-45)" fill="#FF6392"/>
</g>
<path d="M43.4577 22H51.3647V20.2997H45.4329V8.90909H43.4577V22ZM57.6001 22.1982C60.3679 22.1982 62.1768 20.1719 62.1768 17.1357C62.1768 14.0803 60.3679 12.054 57.6001 12.054C54.8324 12.054 53.0234 14.0803 53.0234 17.1357C53.0234 20.1719 54.8324 22.1982 57.6001 22.1982ZM57.6065 20.5938C55.7976 20.5938 54.9538 19.0149 54.9538 17.1293C54.9538 15.25 55.7976 13.652 57.6065 13.652C59.4027 13.652 60.2464 15.25 60.2464 17.1293C60.2464 19.0149 59.4027 20.5938 57.6065 20.5938ZM68.4267 25.8864C70.926 25.8864 72.8564 24.7422 72.8564 22.2173V12.1818H70.9835V13.7734H70.8429C70.5041 13.1662 69.8265 12.054 67.9984 12.054C65.627 12.054 63.8819 13.9268 63.8819 17.0526C63.8819 20.1847 65.6653 21.853 67.9856 21.853C69.7882 21.853 70.4849 20.8366 70.8301 20.2102H70.9515V22.1406C70.9515 23.6811 69.8968 24.3459 68.4458 24.3459C66.8542 24.3459 66.2342 23.5469 65.8954 22.9844L64.2527 23.6619C64.7704 24.8636 66.0808 25.8864 68.4267 25.8864ZM68.4075 20.2678C66.7008 20.2678 65.8123 18.9574 65.8123 17.027C65.8123 15.1413 66.6816 13.6776 68.4075 13.6776C70.0758 13.6776 70.9707 15.0391 70.9707 17.027C70.9707 19.0533 70.0566 20.2678 68.4075 20.2678ZM79.5552 22.1982C82.323 22.1982 84.1319 20.1719 84.1319 17.1357C84.1319 14.0803 82.323 12.054 79.5552 12.054C76.7875 12.054 74.9785 14.0803 74.9785 17.1357C74.9785 20.1719 76.7875 22.1982 79.5552 22.1982ZM79.5616 20.5938C77.7527 20.5938 76.9089 19.0149 76.9089 17.1293C76.9089 15.25 77.7527 13.652 79.5616 13.652C81.3578 13.652 82.2015 15.25 82.2015 17.1293C82.2015 19.0149 81.3578 20.5938 79.5616 20.5938Z" fill="#0A2A42"/>
<defs>
<clipPath id="clip0_387_1533">
<rect width="34" height="20" fill="white" transform="translate(0 5)"/>
</clipPath>
</defs>
</svg>
